<svg width="118" height="58" viewBox="0 0 118 58" fill="none" xmlns="http://www.w3.org/2000/svg">
<path d="M8.08531 29C8.08531 27.1333 8.49865 25.52 9.32531 24.16C10.1786 22.8 11.2853 21.76 12.6453 21.04C14.0053 20.2933 15.4853 19.92 17.0853 19.92C18.4186 19.92 19.6053 20.0933 20.6453 20.44C21.6853 20.7867 22.6186 21.2533 23.4453 21.84C24.2986 22.4267 25.032 23.0667 25.6453 23.76V17.32C24.4986 16.4133 23.2453 15.7067 21.8853 15.2C20.552 14.6933 18.8586 14.44 16.8053 14.44C14.672 14.44 12.6853 14.7867 10.8453 15.48C9.03198 16.1733 7.44531 17.1733 6.08531 18.48C4.75198 19.7867 3.71198 21.3333 2.96531 23.12C2.24531 24.88 1.88531 26.84 1.88531 29C1.88531 31.16 2.24531 33.1333 2.96531 34.92C3.71198 36.68 4.75198 38.2133 6.08531 39.52C7.44531 40.8267 9.03198 41.8267 10.8453 42.52C12.6853 43.2133 14.672 43.56 16.8053 43.56C18.8586 43.56 20.552 43.3067 21.8853 42.8C23.2453 42.2933 24.4986 41.5867 25.6453 40.68V34.24C25.032 34.9333 24.2986 35.5733 23.4453 36.16C22.6186 36.7467 21.6853 37.2133 20.6453 37.56C19.6053 37.9067 18.4186 38.08 17.0853 38.08C15.4853 38.08 14.0053 37.72 12.6453 37C11.2853 36.2533 10.1786 35.2 9.32531 33.84C8.49865 32.4533 8.08531 30.84 8.08531 29ZM53.6012 33.8C53.6012 35.6933 54.0412 37.3733 54.9212 38.84C55.8279 40.28 57.0413 41.4 58.5613 42.2C60.1079 43 61.8546 43.4 63.8013 43.4C65.7479 43.4 67.4813 43 69.0013 42.2C70.5479 41.4 71.7613 40.28 72.6413 38.84C73.5479 37.3733 74.0013 35.6933 74.0013 33.8C74.0013 31.88 73.5479 30.2 72.6413 28.76C71.7613 27.32 70.5479 26.2 69.0013 25.4C67.4813 24.6 65.7479 24.2 63.8013 24.2C61.8546 24.2 60.1079 24.6 58.5613 25.4C57.0413 26.2 55.8279 27.32 54.9212 28.76C54.0412 30.2 53.6012 31.88 53.6012 33.8ZM58.8813 33.8C58.8813 32.76 59.0946 31.84 59.5213 31.04C59.9746 30.24 60.5746 29.6267 61.3213 29.2C62.0679 28.7733 62.8946 28.56 63.8013 28.56C64.7079 28.56 65.5346 28.7733 66.2813 29.2C67.0279 29.6267 67.6146 30.24 68.0413 31.04C68.4946 31.84 68.7213 32.76 68.7213 33.8C68.7213 34.84 68.4946 35.76 68.0413 36.56C67.6146 37.3333 67.0279 37.9467 66.2813 38.4C65.5346 38.8267 64.7079 39.04 63.8013 39.04C62.8946 39.04 62.0679 38.8267 61.3213 38.4C60.5746 37.9467 59.9746 37.3333 59.5213 36.56C59.0946 35.76 58.8813 34.84 58.8813 33.8ZM77.7681 11.8V43H82.7681V11.8H77.7681ZM89.5281 24.6L81.6081 32.2L90.3681 43H96.5281L87.8081 32.2L95.7281 24.6H89.5281ZM102.935 37.28C102.935 36.7467 103.055 36.3067 103.295 35.96C103.535 35.5867 103.909 35.3067 104.415 35.12C104.922 34.9067 105.575 34.8 106.375 34.8C107.362 34.8 108.295 34.9333 109.175 35.2C110.082 35.4667 110.895 35.8667 111.615 36.4V34C111.349 33.68 110.909 33.3467 110.295 33C109.682 32.6533 108.922 32.36 108.015 32.12C107.135 31.88 106.109 31.76 104.935 31.76C102.642 31.76 100.869 32.28 99.6153 33.32C98.362 34.36 97.7353 35.7733 97.7353 37.56C97.7353 38.8133 98.0286 39.88 98.6153 40.76C99.2286 41.6133 100.029 42.2667 101.015 42.72C102.002 43.1733 103.069 43.4 104.215 43.4C105.335 43.4 106.402 43.2 107.415 42.8C108.455 42.4 109.295 41.8 109.935 41C110.602 40.2 110.935 39.2133 110.935 38.04L110.295 35.64C110.295 36.52 110.095 37.28 109.695 37.92C109.295 38.5333 108.775 39.0133 108.135 39.36C107.495 39.68 106.775 39.84 105.975 39.84C105.415 39.84 104.895 39.7467 104.415 39.56C103.962 39.3467 103.602 39.0533 103.335 38.68C103.069 38.28 102.935 37.8133 102.935 37.28ZM100.935 29.8C101.202 29.6133 101.615 29.3867 102.175 29.12C102.735 28.8533 103.402 28.6267 104.175 28.44C104.949 28.2533 105.762 28.16 106.615 28.16C107.175 28.16 107.682 28.2133 108.135 28.32C108.589 28.4267 108.975 28.6 109.295 28.84C109.642 29.08 109.895 29.3867 110.055 29.76C110.215 30.1067 110.295 30.5333 110.295 31.04V43H115.295V29.96C115.295 28.7067 114.949 27.6533 114.255 26.8C113.562 25.92 112.602 25.2533 111.375 24.8C110.149 24.3467 108.749 24.12 107.175 24.12C105.469 24.12 103.922 24.36 102.535 24.84C101.149 25.2933 99.9753 25.7733 99.0153 26.28L100.935 29.8Z" fill="#FF6B01"/>
<path d="M42.5731 28.7431L42.1736 28.7173C41.8384 28.6916 41.5227 28.5047 41.3744 28.1824C41.1296 27.6862 41.3487 27.0804 41.8642 26.8613C42.0759 26.7744 42.3115 26.7649 42.5296 26.8344C42.7476 26.9039 42.9342 27.0481 43.0564 27.2416C43.1402 27.3833 43.1918 27.5444 43.1982 27.6991L43.224 28.0922C43.2297 28.1792 43.2168 28.2663 43.1861 28.3479C43.1554 28.4294 43.1076 28.5035 43.046 28.5651C42.9844 28.6267 42.9103 28.6745 42.8288 28.7052C42.7472 28.7359 42.6601 28.7488 42.5731 28.7431ZM46.7298 32.3713L46.704 32.7709C46.6782 33.106 46.4913 33.4218 46.1691 33.57C45.6729 33.8149 45.0671 33.5958 44.848 33.0802C44.7611 32.8685 44.7515 32.6329 44.8211 32.4149C44.8906 32.1968 45.0348 32.0103 45.2282 31.888C45.37 31.8042 45.5311 31.7527 45.6858 31.7462L46.0789 31.7204C46.1658 31.7148 46.253 31.7277 46.3345 31.7584C46.4161 31.7891 46.4902 31.8368 46.5518 31.8985C46.6134 31.9601 46.6611 32.0341 46.6918 32.1157C46.7225 32.1972 46.7355 32.2844 46.7298 32.3713ZM36.2318 38.6611L36.1996 39.1573C36.1673 39.6149 36.5476 39.9951 37.0051 39.9629L37.4949 39.9307C37.6882 39.9178 37.8816 39.8598 38.062 39.7502C38.3028 39.5985 38.4822 39.3664 38.5683 39.0951C38.6544 38.8239 38.6417 38.5308 38.5324 38.268C38.4694 38.1169 38.3759 37.9803 38.2578 37.8669C38.1397 37.7535 37.9994 37.6656 37.8459 37.6088C37.6923 37.552 37.5286 37.5274 37.3651 37.5366C37.2016 37.5458 37.0418 37.5885 36.8956 37.6622C36.496 37.862 36.2576 38.2487 36.2318 38.6611ZM42.5216 32.8482L42.5022 33.1447C42.4844 33.4753 42.378 33.795 42.1944 34.0705C42.0108 34.3459 41.7565 34.567 41.4582 34.7107C40.4851 35.194 39.2929 34.7622 38.874 33.7376C38.7044 33.3189 38.6904 32.8534 38.8347 32.4254C38.9789 31.9973 39.2718 31.6352 39.6602 31.4047C39.9309 31.2436 40.2209 31.1598 40.5109 31.1469L40.8009 31.1276C41.0307 31.1128 41.261 31.1472 41.4764 31.2284C41.6919 31.3097 41.8875 31.4359 42.0504 31.5988C42.2132 31.7616 42.3394 31.9572 42.4207 32.1727C42.5019 32.3881 42.5363 32.6184 42.5216 32.8482ZM34.3049 29.4262L34.2856 29.1556C34.234 28.2727 34.9622 27.538 35.8451 27.596L36.1093 27.6153C36.3736 27.6282 36.6378 27.7056 36.8827 27.8473C37.6109 28.2727 37.9138 29.1878 37.598 29.9676C37.5087 30.1851 37.3756 30.382 37.2069 30.5458C37.0382 30.7097 36.8375 30.837 36.6174 30.9198C36.3973 31.0027 36.1624 31.0393 35.9276 31.0273C35.6927 31.0154 35.4628 30.9552 35.2522 30.8504C34.6851 30.5669 34.3436 30.0127 34.3049 29.4262ZM45.0027 38.2938L44.9898 38.0618C44.9576 37.5527 44.6676 37.0822 44.1778 36.8502C43.9975 36.7599 43.8006 36.7078 43.5993 36.6972C43.398 36.6865 43.1966 36.7176 43.0079 36.7884C42.8191 36.8592 42.647 36.9682 42.5023 37.1085C42.3577 37.2489 42.2435 37.4177 42.1671 37.6042C41.8964 38.268 42.1542 39.0478 42.7793 39.4151C42.992 39.5376 43.2176 39.602 43.4431 39.6149L43.6687 39.6278C44.4227 39.6793 45.0542 39.0478 45.0027 38.2938ZM33.1642 34.6591L33.1384 34.2596C33.1328 34.1726 33.1457 34.0854 33.1764 34.0039C33.2071 33.9223 33.2548 33.8483 33.3165 33.7867C33.3781 33.7251 33.4521 33.6773 33.5337 33.6466C33.6152 33.6159 33.7024 33.603 33.7893 33.6087L34.1824 33.6344C34.3371 33.6409 34.4982 33.6924 34.64 33.7762C35.0396 34.0276 35.2007 34.5367 35.0202 34.9684C34.8011 35.484 34.1953 35.7031 33.6991 35.4582C33.3769 35.31 33.1836 34.9942 33.1642 34.6591Z" fill="#FF6B01"/>
<path d="M39.6667 24C37.058 24 34.6336 24.7476 32.8542 26.3658C31.0633 27.9936 30 30.4348 30 33.6667C30 36.8135 31.0672 39.2501 32.8504 40.8967C34.6252 42.5342 37.0483 43.3333 39.6667 43.3333C42.2857 43.3333 44.7088 42.5297 46.4836 40.889C48.2661 39.2405 49.3333 36.8045 49.3333 33.6667C49.3333 30.4767 48.2681 28.0381 46.481 26.4012C44.7036 24.7733 42.2799 24 39.6667 24ZM31.2889 33.6667C31.2889 30.7312 32.2452 28.6613 33.721 27.3195C35.2071 25.9681 37.2938 25.2889 39.6667 25.2889C42.035 25.2889 44.1224 25.9881 45.6104 27.3518C47.0894 28.707 48.0444 30.7796 48.0444 33.6667C48.0444 36.4971 47.0913 38.5709 45.6084 39.9423C44.1172 41.3214 42.0292 42.0444 39.6667 42.0444C37.3035 42.0444 35.2155 41.3252 33.7249 39.9494C32.2427 38.5812 31.2889 36.5067 31.2889 33.6667Z" fill="#FF6B01"/>
</svg>
