<svg width="20" height="20" viewBox="0 0 20 20" fill="none" xmlns="http://www.w3.org/2000/svg">
<path d="M12.5731 4.74311L12.1736 4.71734C11.8384 4.69156 11.5227 4.50467 11.3744 4.18245C11.1296 3.68623 11.3487 3.08045 11.8642 2.86134C12.0759 2.7744 12.3115 2.76486 12.5296 2.8344C12.7476 2.90393 12.9342 3.0481 13.0564 3.24156C13.1402 3.38334 13.1918 3.54445 13.1982 3.69911L13.224 4.09223C13.2297 4.17917 13.2168 4.26634 13.1861 4.34789C13.1554 4.42943 13.1076 4.50349 13.046 4.5651C12.9844 4.62672 12.9103 4.67447 12.8288 4.70517C12.7472 4.73587 12.6601 4.7488 12.5731 4.74311ZM16.7298 8.37134L16.704 8.77089C16.6782 9.106 16.4913 9.42178 16.1691 9.57C15.6729 9.81489 15.0671 9.59578 14.848 9.08023C14.7611 8.86852 14.7515 8.63294 14.8211 8.41489C14.8906 8.19685 15.0348 8.01029 15.2282 7.888C15.37 7.80423 15.5311 7.75267 15.6858 7.74623L16.0789 7.72045C16.1658 7.71476 16.253 7.7277 16.3345 7.75839C16.4161 7.78909 16.4902 7.83684 16.5518 7.89846C16.6134 7.96007 16.6611 8.03413 16.6918 8.11568C16.7225 8.19722 16.7355 8.28439 16.7298 8.37134ZM6.23178 14.6611L6.19956 15.1573C6.16733 15.6149 6.54756 15.9951 7.00511 15.9629L7.49489 15.9307C7.68822 15.9178 7.88156 15.8598 8.062 15.7502C8.30283 15.5985 8.48218 15.3664 8.56829 15.0951C8.6544 14.8239 8.6417 14.5308 8.53245 14.268C8.46941 14.1169 8.37592 13.9803 8.25779 13.8669C8.13967 13.7535 7.99945 13.6656 7.84587 13.6088C7.69229 13.552 7.52865 13.5274 7.36515 13.5366C7.20165 13.5458 7.0418 13.5885 6.89556 13.6622C6.496 13.862 6.25756 14.2487 6.23178 14.6611ZM12.5216 8.84823L12.5022 9.14467C12.4844 9.47526 12.378 9.79498 12.1944 10.0705C12.0108 10.3459 11.7565 10.567 11.4582 10.7107C10.4851 11.194 9.29289 10.7622 8.874 9.73756C8.70437 9.31895 8.69041 8.85339 8.83466 8.42537C8.97891 7.99735 9.27181 7.63521 9.66022 7.40467C9.93089 7.24356 10.2209 7.15978 10.5109 7.14689L10.8009 7.12756C11.0307 7.1128 11.261 7.14719 11.4764 7.22844C11.6919 7.30969 11.8875 7.43593 12.0504 7.59875C12.2132 7.76157 12.3394 7.95723 12.4207 8.17268C12.5019 8.38814 12.5363 8.61843 12.5216 8.84823ZM4.30489 5.42623L4.28556 5.15556C4.234 4.27267 4.96222 3.538 5.84511 3.596L6.10933 3.61534C6.37356 3.62823 6.63778 3.70556 6.88267 3.84734C7.61089 4.27267 7.91378 5.18778 7.598 5.96756C7.50874 6.18514 7.37559 6.38199 7.20687 6.54583C7.03815 6.70967 6.83748 6.83698 6.61737 6.91982C6.39726 7.00267 6.16245 7.03926 5.92757 7.02732C5.69269 7.01539 5.4628 6.95518 5.25222 6.85045C4.68511 6.56689 4.34356 6.01267 4.30489 5.42623ZM15.0027 14.2938L14.9898 14.0618C14.9576 13.5527 14.6676 13.0822 14.1778 12.8502C13.9975 12.7599 13.8006 12.7078 13.5993 12.6972C13.398 12.6865 13.1966 12.7176 13.0079 12.7884C12.8191 12.8592 12.647 12.9682 12.5023 13.1085C12.3577 13.2489 12.2435 13.4177 12.1671 13.6042C11.8964 14.268 12.1542 15.0478 12.7793 15.4151C12.992 15.5376 13.2176 15.602 13.4431 15.6149L13.6687 15.6278C14.4227 15.6793 15.0542 15.0478 15.0027 14.2938ZM3.16422 10.6591L3.13844 10.2596C3.13276 10.1726 3.14569 10.0854 3.17639 10.0039C3.20709 9.92235 3.25484 9.84829 3.31645 9.78668C3.37807 9.72507 3.45212 9.67731 3.53367 9.64662C3.61522 9.61592 3.70238 9.60298 3.78933 9.60867L4.18244 9.63445C4.33711 9.64089 4.49822 9.69245 4.64 9.77623C5.03956 10.0276 5.20067 10.5367 5.02022 10.9684C4.80111 11.484 4.19533 11.7031 3.69911 11.4582C3.37689 11.31 3.18356 10.9942 3.16422 10.6591Z" fill="#FF6B01"/>
<path d="M9.66667 0C7.05796 0 4.63356 0.747556 2.85424 2.36576C1.06333 3.99362 0 6.43478 0 9.66667C0 12.8135 1.0672 15.2501 2.85038 16.8967C4.62518 18.5342 7.04829 19.3333 9.66667 19.3333C12.2857 19.3333 14.7088 18.5297 16.4836 16.889C18.2661 15.2405 19.3333 12.8045 19.3333 9.66667C19.3333 6.47667 18.2681 4.03809 16.481 2.4012C14.7036 0.773333 12.2799 0 9.66667 0ZM1.28889 9.66667C1.28889 6.73122 2.24524 4.66127 3.72102 3.31953C5.20711 1.96813 7.29382 1.28889 9.66667 1.28889C12.035 1.28889 14.1224 1.98811 15.6104 3.35176C17.0894 4.70702 18.0444 6.77956 18.0444 9.66667C18.0444 12.4971 17.0913 14.5709 15.6084 15.9423C14.1172 17.3214 12.0292 18.0444 9.66667 18.0444C7.30349 18.0444 5.21549 17.3252 3.72489 15.9494C2.24267 14.5812 1.28889 12.5067 1.28889 9.66667Z" fill="#FF6B01"/>
</svg>
